# xmcd
#
# Track frame offsets: 
#        150
#        14824
#        29844
#        47991
#        58502
#        71748
#        83338
#        95105
#        106022
#        122276
#        135401
#        147630
#
# Disc length: 2112 seconds
#
# Revision: 1
# Processed by: cddbd v1.5.2PL0 Copyright (c) Steve Scherf et al.
# Submitted via: ExactAudioCopy v0.95b4
#
DISCID=a9083e0c
DTITLE=Eddie Rabbitt - Hits - Disc 2
DYEAR=2003
DGENRE=Country
TTITLE0=Drivin' My Life Away
TTITLE1=You Don't Love Me Anymore
TTITLE2=I Just Want To Love You
TTITLE3=Ain't I Something
TTITLE4=Crossin' The Mississippi
TTITLE5=Do You Right Tonight
TTITLE6=Hearts On Fire
TTITLE7=Plain As The Pain On My Face
TTITLE8=Rocky Mountain Music
TTITLE9=She Loves Me Like She Means It
TTITLE10=I Just Got To Have You
TTITLE11=Two Dollars In The Jukebox
EXTD=
EXTT0=
EXTT1=
EXTT2=
EXTT3=
EXTT4=
EXTT5=
EXTT6=
EXTT7=
EXTT8=
EXTT9=
EXTT10=
EXTT11=
PLAYORDER=
